<svg version="1.1" id="Layer_1" xmlns="http://www.w3.org/2000/svg" xmlns:xlink="http://www.w3.org/1999/xlink" x="0px" y="0px"
	 width="100%" viewBox="0 0 267 246" enable-background="new 0 0 267 246" xml:space="preserve">
<path fill="#21264a" opacity="1.000000" stroke="none" 
	d="
M181.000000,247.000000 
	C120.666664,247.000000 60.833332,247.000000 1.000000,247.000000 
	C1.000000,165.000000 1.000000,83.000000 1.000000,1.000000 
	C90.000000,1.000000 179.000000,1.000000 268.000000,1.000000 
	C268.000000,83.000000 268.000000,165.000000 268.000000,247.000000 
	C239.166672,247.000000 210.333328,247.000000 181.000000,247.000000 
M130.039383,119.025444 
	C130.039383,119.025444 130.059814,119.054268 130.823364,119.118851 
	C133.883224,118.017113 136.943085,116.915375 140.748962,115.781914 
	C144.167419,114.558670 147.585876,113.335419 151.682785,112.213547 
	C156.418274,111.022751 160.452759,109.220673 163.461075,104.774590 
	C171.384674,93.064079 179.839600,81.713501 188.060059,70.203247 
	C194.025314,61.850716 199.954086,53.472115 205.899124,45.105137 
	C205.703735,44.805099 205.508347,44.505062 205.312958,44.205021 
	C199.907089,46.140240 194.501236,48.075459 188.343369,50.076916 
	C185.564316,51.112537 182.785278,52.148159 179.267563,53.216179 
	C176.062225,54.403824 172.856903,55.591469 168.946228,56.756935 
	C166.966660,57.513447 164.987091,58.269958 162.268082,58.932796 
	C159.827240,59.887943 157.386398,60.843094 154.186432,61.792633 
	C151.443558,62.805428 148.700699,63.818218 145.182236,64.831383 
	C141.450119,66.194160 137.718002,67.556938 133.207779,68.859795 
	C125.236282,70.091774 120.340668,75.108971 116.003059,81.589249 
	C108.159508,93.307350 99.662277,104.587425 91.459137,116.065506 
	C86.799194,122.585846 82.181221,129.136154 77.544350,135.672974 
	C77.767654,135.977097 77.990952,136.281204 78.214256,136.585327 
	C83.464554,134.717880 88.714851,132.850418 94.723389,130.981857 
	C98.485748,129.634521 102.248116,128.287201 106.740707,126.953186 
	C109.194580,126.053276 111.648453,125.153358 114.867393,124.263039 
	C117.245316,123.431351 119.623230,122.599670 122.751892,121.741631 
	C124.897400,120.933876 127.042908,120.126122 129.512772,119.452003 
	C129.774963,119.429680 129.955292,119.296425 130.039383,119.025444 
M194.635498,115.160172 
	C195.346680,113.904030 196.057877,112.647896 197.195312,110.638885 
	C194.986954,111.140892 193.534332,111.337723 192.172089,111.800552 
	C167.306152,120.248970 142.436356,128.686905 117.623283,137.288345 
	C115.761925,137.933594 113.933670,139.511169 112.747185,141.135391 
	C102.348419,155.370743 92.080467,169.701920 81.814720,184.034058 
	C77.691322,189.790787 73.670120,195.620728 69.471535,201.603851 
	C70.298172,201.739807 70.654472,201.914780 70.924370,201.826248 
	C96.971558,193.283493 123.024559,184.757767 149.024994,176.074707 
	C150.732513,175.504456 152.383194,173.973236 153.473114,172.464752 
	C167.104965,153.597885 180.628281,134.652603 194.635498,115.160172 
z"/>
<path fill="#FBFBFB" opacity="1.000000" stroke="none" 
	d="
M194.407455,115.443802 
	C180.628281,134.652603 167.104965,153.597885 153.473114,172.464752 
	C152.383194,173.973236 150.732513,175.504456 149.024994,176.074707 
	C123.024559,184.757767 96.971558,193.283493 70.924370,201.826248 
	C70.654472,201.914780 70.298172,201.739807 69.471535,201.603851 
	C73.670120,195.620728 77.691322,189.790787 81.814720,184.034058 
	C92.080467,169.701920 102.348419,155.370743 112.747185,141.135391 
	C113.933670,139.511169 115.761925,137.933594 117.623283,137.288345 
	C142.436356,128.686905 167.306152,120.248970 192.172089,111.800552 
	C193.534332,111.337723 194.986954,111.140892 197.195312,110.638885 
	C196.057877,112.647896 195.346680,113.904030 194.407455,115.443802 
z"/>
<path fill="#1FB5EB" opacity="1.000000" stroke="none" 
	d="
M93.965149,130.982971 
	C88.714851,132.850418 83.464554,134.717880 78.214256,136.585327 
	C77.990952,136.281204 77.767654,135.977097 77.544350,135.672974 
	C82.181221,129.136154 86.799194,122.585846 91.459137,116.065506 
	C99.662277,104.587425 108.159508,93.307350 116.003059,81.589249 
	C120.340668,75.108971 125.236282,70.091774 133.595016,69.264580 
	C133.029953,71.559120 132.296051,73.602478 131.091614,75.314873 
	C118.993584,92.515038 106.792290,109.642639 94.729050,126.866997 
	C94.000580,127.907120 94.198357,129.595978 93.965149,130.982971 
z"/>
<path fill="#0585F4" opacity="1.000000" stroke="none" 
	d="
M189.095367,50.010681 
	C194.501236,48.075459 199.907089,46.140240 205.312958,44.205021 
	C205.508347,44.505062 205.703735,44.805099 205.899124,45.105137 
	C199.954086,53.472115 194.025314,61.850716 188.060059,70.203247 
	C179.839600,81.713501 171.384674,93.064079 163.461075,104.774590 
	C160.452759,109.220673 156.418274,111.022751 151.360748,111.847054 
	C151.870956,109.686501 152.461670,107.724419 153.574127,106.125282 
	C161.586258,94.608009 169.712585,83.170242 177.784897,71.694740 
	C181.770584,66.028717 185.816849,60.400429 189.606186,54.604992 
	C190.433975,53.338978 192.752350,51.120796 189.095367,50.010681 
z"/>
<path fill="#1AB1F3" opacity="1.000000" stroke="none" 
	d="
M94.344269,130.982422 
	C94.198357,129.595978 94.000580,127.907120 94.729050,126.866997 
	C106.792290,109.642639 118.993584,92.515038 131.091614,75.314873 
	C132.296051,73.602478 133.029953,71.559120 133.984070,69.294540 
	C137.718002,67.556938 141.450119,66.194160 145.576950,65.216202 
	C145.296555,67.255836 144.906204,69.111610 143.902222,70.534332 
	C133.996277,84.571701 123.867844,98.453560 114.079865,112.571815 
	C110.964180,117.065903 108.676857,122.134277 106.010483,126.939865 
	C102.248116,128.287201 98.485748,129.634521 94.344269,130.982422 
z"/>
<path fill="#0891FA" opacity="1.000000" stroke="none" 
	d="
M188.719360,50.043800 
	C192.752350,51.120796 190.433975,53.338978 189.606186,54.604992 
	C185.816849,60.400429 181.770584,66.028717 177.784897,71.694740 
	C169.712585,83.170242 161.586258,94.608009 153.574127,106.125282 
	C152.461670,107.724419 151.870956,109.686501 151.021515,111.796364 
	C147.585876,113.335419 144.167419,114.558670 140.375137,115.423248 
	C140.472473,113.703308 140.669876,112.153801 141.456665,111.009544 
	C150.429779,97.959427 159.602173,85.045204 168.483154,71.933342 
	C172.593018,65.865585 176.181412,59.444614 180.006226,53.183777 
	C182.785278,52.148159 185.564316,51.112537 188.719360,50.043800 
z"/>
<path fill="#0C98F8" opacity="1.000000" stroke="none" 
	d="
M179.636902,53.199978 
	C176.181412,59.444614 172.593018,65.865585 168.483154,71.933342 
	C159.602173,85.045204 150.429779,97.959427 141.456665,111.009544 
	C140.669876,112.153801 140.472473,113.703308 140.002136,115.439102 
	C136.943085,116.915375 133.883224,118.017113 130.456848,118.727127 
	C136.214554,108.905708 142.153030,99.348534 148.513733,90.081139 
	C155.261658,80.249542 162.463425,70.730164 169.303253,60.959797 
	C169.996124,59.970016 169.562454,58.191570 169.651566,56.779114 
	C172.856903,55.591469 176.062225,54.403824 179.636902,53.199978 
z"/>
<path fill="#16AAF6" opacity="1.000000" stroke="none" 
	d="
M106.375595,126.946526 
	C108.676857,122.134277 110.964180,117.065903 114.079865,112.571815 
	C123.867844,98.453560 133.996277,84.571701 143.902222,70.534332 
	C144.906204,69.111610 145.296555,67.255836 145.964752,65.216019 
	C148.700699,63.818218 151.443558,62.805428 154.576874,62.177498 
	C154.579468,63.620670 154.396530,64.821808 153.773209,65.715958 
	C143.654770,80.231339 133.406464,94.656754 123.360512,109.221825 
	C120.023819,114.059502 117.174461,119.233299 114.102310,124.253448 
	C111.648453,125.153358 109.194580,126.053276 106.375595,126.946526 
z"/>
<path fill="#109FF8" opacity="1.000000" stroke="none" 
	d="
M169.298889,56.768024 
	C169.562454,58.191570 169.996124,59.970016 169.303253,60.959797 
	C162.463425,70.730164 155.261658,80.249542 148.513733,90.081139 
	C142.153030,99.348534 136.214554,108.905708 130.075073,118.694839 
	C130.059814,119.054268 130.039383,119.025444 129.892456,119.047455 
	C129.539963,119.108002 129.354248,119.190964 129.188416,119.318367 
	C127.042908,120.126122 124.897400,120.933876 122.375931,121.385429 
	C122.281418,119.933060 122.277321,118.635750 122.886734,117.770615 
	C133.546585,102.637733 144.355057,87.609123 154.953018,72.433372 
	C157.930969,68.169098 160.338394,63.506409 163.007523,59.026466 
	C164.987091,58.269958 166.966660,57.513447 169.298889,56.768024 
z"/>
<path fill="#13A5F7" opacity="1.000000" stroke="none" 
	d="
M162.637802,58.979630 
	C160.338394,63.506409 157.930969,68.169098 154.953018,72.433372 
	C144.355057,87.609123 133.546585,102.637733 122.886734,117.770615 
	C122.277321,118.635750 122.281418,119.933060 122.000565,121.398605 
	C119.623230,122.599670 117.245316,123.431351 114.484848,124.258240 
	C117.174461,119.233299 120.023819,114.059502 123.360512,109.221825 
	C133.406464,94.656754 143.654770,80.231339 153.773209,65.715958 
	C154.396530,64.821808 154.579468,63.620670 154.956421,62.180302 
	C157.386398,60.843094 159.827240,59.887943 162.637802,58.979630 
z"/>
<path fill="#0C98F8" opacity="1.000000" stroke="none" 
	d="
M129.350586,119.385185 
	C129.354248,119.190964 129.539963,119.108002 129.899643,119.060852 
	C129.955292,119.296425 129.774963,119.429680 129.350586,119.385185 
z"/>
</svg>